<?xml version="1.0" encoding="UTF-8"?>
<svg version="1.1" viewBox="0 0 2048 613" width="868" height="260" xmlns="http://www.w3.org/2000/svg">
<path transform="translate(0)" d="m0 0h2048v613h-2048z" fill="#FDFDFD"/>
<path transform="translate(1369,186)" d="m0 0h119l21 3 18 6 12 7 10 8 9 12 5 10 3 9v38l-4 18-12 34-12 31-12 29-11 22-12 18-8 10-8 8-10 7-11 6-13 4-20 3-27 1h-58l-3 5-16 39-5 12-14 34-4 8-4 1h-75l-15-1 6-16 10-24 6-16 13-31 5-13 10-24 5-14 4-9 12-29 20-49 15-37 8-21 12-28 10-25 16-39 3-6z" fill="#292828"/>
<path transform="translate(1219,143)" d="m0 0h14l24 3 17 5 17 8 13 10 8 9 7 12 4 13 1 5v22l-5 21-4 10-4 2h-79l-10-4-3-4v-10l4-16v-9l-3-4-9-1-11 4-6 7-6 10-2 7v10l5 8 7 7 14 11 13 10 11 9 11 11 9 13 7 14 3 11 1 7v15l-2 14-10 26-9 17-4 6-9 12-14 11-19 10-13 4-21 4-6 1-21 1h-14l-20-1-24-5-14-5-11-6-13-10-8-10-6-12-3-10-1-8v-18l3-17 5-15 2-3 57-1 25 1 10 4 4 6-1 9-3 8v18l2 2 8 1 10-3 6-5 8-14 3-8v-6l-6-10-11-10-9-7-13-10-13-11-10-10-10-13-5-11-4-14-1-7v-15l3-16 6-18 8-16 8-13 7-9 9-9 15-10 16-7 14-4 21-3z" fill="#292828"/>
<path transform="translate(650,181)" d="m0 0h47l21 3 15 5 11 6 11 8 8 9 8 16 4 13v27l-4 21-5 12-6 14-7 10-8 10-10 9-14 9-11 5-21 7-14 3-14 2h-21l2-9 12-36 12-37 5-14v-7l-5-5-9-2-10 3-5 5-8 16-11 29-6 15-12 31-8 20-4 14v5l4 4 4 1h29l31-1 29-4 17-3h8l7 2 2 2v8l-7 14-7 11-10 13-8 8-14 10-13 6-24 5-21 1h-61l-16-2-20-6-10-6-9-8-6-9-5-12-3-14v-13l4-19 6-20 16-41 10-26 15-36 9-17 12-17 14-15 13-11 17-10 14-6 16-4z" fill="#292828"/>
<path transform="translate(916,181)" d="m0 0h47l20 3 15 5 12 6 11 9 7 8 8 14 4 15 1 8-1 22-4 19-10 23-8 13-9 11-11 9-15 9-19 7-14 4-16 3-7 1h-21l1-7 12-36 17-52v-8l-4-5-6-2-9 1-6 3-6 7-8 20-11 28-6 16-18 45-3 11v8l4 3 3 1h24l36-1 24-3 22-4h10l7 3 1 7-4 10-11 18-9 11-11 11-10 7-13 6-14 4-12 2-17 1h-65l-16-2-17-5-10-5-12-11-7-10-4-11-2-12v-16l5-25 25-65 19-47 8-16 7-11 8-10 9-10 10-10 14-10 10-6 18-7 17-4z" fill="#292828"/>
<path transform="translate(235,186)" d="m0 0h87l17 2 15 4 9 4 5 3-1 4-18 18-8 7-5 6-8 7-18 18-10 5-11 2-9 1-9 20-11 26-15 36 57 1 2 1-3 10-11 28-11 27-5 12-3 2h-56l-3 3-6 14-11 28-6 11-10 18-9 12-9 11-14 14-15 10-12 7-19 7-13 3-11 1h-24l-10-2 6-12 16-26 12-20 12-19 9-15 9-20 12-30 14-34 13-32 17-41 15-37 13-32 15-36 5-10 7-9 10-6z" fill="#292828"/>
<path transform="translate(1907,127)" d="m0 0h74l1 3-7 18-6 13-11 28-6 14-7 17 71 1 5 1-3 9-20 50-7 16-3 1h-74l-17 40-6 16-18 43-22 54-5 14-3 4-45 1h-47l-2-1 1-5 12-30 16-38 8-20 11-27 8-20 15-36 20-49 8-20 11-27 15-36 7-16 9-10 6-4z" fill="#292828"/>
<path transform="translate(1669,127)" d="m0 0h75l-1 7-11 26-10 25-11 27-8 20-6 14-15 37-5 12-13 32-4 10-18 44-11 27-8 19-4 10-11 28-2 4-44 1h-47l-4-2 2-5 11-28 15-36 6-16 5-11 11-27 5-13 16-38 11-28 8-19 11-27 16-39 11-27 6-12 8-8 12-6z" fill="#292828"/>
<path transform="translate(400,186)" d="m0 0h106l21 3 18 6 7 5-6 7-9 9-8 7-4 5-8 7-25 25-7 4-7 2-16 2-5 11-18 44-11 27-28 68-15 37-5 12-2 2-43 1h-47l-3-1 1-6 9-22 5-12 11-27 16-39 10-26 7-15 14-35 14-34 6-15 15-37z" fill="#292828"/>
<path transform="translate(1749,186)" d="m0 0h91l1 4-5 13-12 29-27 66-12 29-4 10-16 39-11 27-8 20-15 36-4 10-2 1h-68l-24-1 1-5 22-55 18-43 13-32 11-27 9-22 32-78 8-19z" fill="#292828"/>
<path transform="translate(1447,265)" d="m0 0h7l7 3 3 6-1 8-6 17-30 80-6 11-7 6-6 2h-14l-4-3-1-8 5-16 12-32 10-26 6-16 6-15 5-9 7-6z" fill="#FDFDFD"/>
<path transform="translate(1789,127)" d="m0 0h75v6l-12 30-3 3h-91l-1-3 6-16 7-10 10-7z" fill="#292828"/>
</svg>
